PathFileType	4	(X/Y/Z)	output.trc
DataRate	CameraRate	NumFrames	NumMarkers	Units	OrigDataRate	OrigDataStartFrame	OrigNumFrames
100	100	18	23	m	100	4624	6164
Frame#	Time	C7			T8			EL			EM			US			RS			AA			Fore_Clus_1			Fore_Clus_2			Fore_Clus_3			Fore_Clus_4			Hum_Clus_1			Hum_Clus_2			Hum_Clus_3			Hum_Clus_4			Thor_Clus_1			Thor_Clus_2			Thor_Clus_3			Thor_Clus_4			IJ			PX			GH			Thor_Clus_5		
		X1	Y1	Z1	X2	Y2	Z2	X3	Y3	Z3	X4	Y4	Z4	X5	Y5	Z5	X6	Y6	Z6	X7	Y7	Z7	X8	Y8	Z8	X9	Y9	Z9	X10	Y10	Z10	X11	Y11	Z11	X12	Y12	Z12	X13	Y13	Z13	X14	Y14	Z14	X15	Y15	Z15	X16	Y16	Z16	X17	Y17	Z17	X18	Y18	Z18	X19	Y19	Z19	X20	Y20	Z20	X21	Y21	Z21	X22	Y22	Z22	X23	Y23	Z23
4623	46.230000	-0.055250	1.562341	-0.060358	-0.086332	1.323160	-0.134231	-0.386626	1.245469	0.127653	-0.335610	1.202468	0.111931	-0.259617	1.273242	0.368183	-0.214109	1.304574	0.341154	-0.227707	1.498452	0.042848	-0.304832	1.290493	0.330405	-0.273173	1.302680	0.373225	-0.258965	1.320624	0.357389	-0.281005	1.318686	0.304218	-0.336398	1.357628	0.153895	-0.360018	1.353564	0.098644	-0.335036	1.406238	0.072484	-0.301719	1.413982	0.120368	0.056562	1.458743	0.068119	0.010383	1.409872	0.122670	0.014748	1.458177	0.091192	0.067066	1.411482	0.091988	0.002370	1.473564	0.032990	0.032246	1.270090	0.084150	-0.198614	1.466590	0.036544	0.004711	1.431318	0.112544
4624	46.240000	-0.056369	1.561987	-0.059970	-0.086242	1.322839	-0.134444	-0.381505	1.236764	0.123127	-0.329596	1.195421	0.105945	-0.255004	1.260663	0.364012	-0.210584	1.294346	0.338020	-0.228519	1.496979	0.043047	-0.300741	1.277386	0.326803	-0.269350	1.289305	0.370034	-0.256005	1.308366	0.354705	-0.277800	1.307189	0.301496	-0.333605	1.349425	0.152447	-0.357327	1.346669	0.096750	-0.333701	1.400435	0.072321	-0.300387	1.407498	0.120404	0.055793	1.458571	0.068303	0.009865	1.409370	0.122683	0.014079	1.457794	0.091302	0.066704	1.411362	0.091983	0.001680	1.473268	0.033166	0.032567	1.269819	0.083824	-0.199059	1.464697	0.037662	0.004199	1.430854	0.112702
4625	46.250000	-0.057502	1.561593	-0.059585	-0.086191	1.322467	-0.134596	-0.376327	1.228602	0.118615	-0.323639	1.188929	0.099931	-0.250081	1.248500	0.359673	-0.206783	1.284394	0.334769	-0.229319	1.495497	0.043297	-0.296213	1.264866	0.323018	-0.264747	1.276012	0.366356	-0.252381	1.296324	0.351954	-0.274279	1.296198	0.298678	-0.330571	1.341541	0.150831	-0.354750	1.339966	0.095316	-0.332308	1.394904	0.072369	-0.298779	1.401135	0.120556	0.055072	1.458397	0.068559	0.009599	1.408982	0.122687	0.013592	1.457485	0.091417	0.066453	1.411179	0.091914	0.000995	1.472953	0.033347	0.032897	1.269547	0.083543	-0.199472	1.462884	0.038754	0.003716	1.430258	0.112973
4626	46.260000	-0.058638	1.561173	-0.059195	-0.086177	1.322065	-0.134693	-0.371113	1.220969	0.114139	-0.317753	1.182980	0.093926	-0.244880	1.236826	0.355186	-0.202732	1.274793	0.331408	-0.230098	1.494023	0.043599	-0.291600	1.253073	0.319232	-0.263991	1.265281	0.363513	-0.248517	1.284568	0.348903	-0.270514	1.285651	0.295675	-0.327336	1.333866	0.149338	-0.352094	1.333577	0.093896	-0.331136	1.389573	0.072489	-0.296993	1.395019	0.120635	0.054620	1.458230	0.068666	0.009373	1.408580	0.122701	0.013114	1.457208	0.091560	0.066130	1.411022	0.091872	0.000320	1.472628	0.033536	0.033233	1.269277	0.083302	-0.199859	1.461159	0.039808	0.003374	1.429830	0.113090
4627	46.270000	-0.059767	1.560738	-0.058794	-0.086198	1.321647	-0.134737	-0.365881	1.213850	0.109722	-0.311951	1.177554	0.087969	-0.239437	1.225707	0.350573	-0.198460	1.265610	0.327949	-0.230852	1.492571	0.043955	-0.286655	1.241635	0.315041	-0.256644	1.252282	0.359013	-0.243967	1.273198	0.345227	-0.266547	1.275525	0.292436	-0.323993	1.326472	0.147904	-0.349145	1.327229	0.092855	-0.329535	1.384431	0.072876	-0.295103	1.389048	0.120697	0.053919	1.457997	0.069092	0.009123	1.408144	0.122731	0.012668	1.456827	0.091724	0.065845	1.410912	0.091885	-0.000339	1.472300	0.033738	0.033572	1.269014	0.083097	-0.200231	1.459522	0.040808	0.003065	1.429551	0.112853
4628	46.280000	-0.060893	1.560291	-0.058382	-0.086263	1.321211	-0.134721	-0.360657	1.207222	0.105394	-0.306253	1.172626	0.082105	-0.233801	1.215197	0.345860	-0.193998	1.256890	0.324396	-0.231583	1.491148	0.044372	-0.281407	1.230762	0.310458	-0.251134	1.240749	0.354902	-0.239701	1.262715	0.341852	-0.262312	1.266020	0.289130	-0.320390	1.319418	0.146480	-0.346275	1.321254	0.091810	-0.328046	1.379353	0.073328	-0.293232	1.383396	0.120730	0.053402	1.457851	0.069370	0.008894	1.407729	0.122789	0.011852	1.456617	0.092026	0.065574	1.410821	0.091934	-0.000985	1.471971	0.033954	0.033910	1.268760	0.082936	-0.200601	1.457967	0.041729	0.002603	1.428918	0.113307
4629	46.290000	-0.061998	1.559854	-0.057951	-0.086358	1.320789	-0.134665	-0.355449	1.201058	0.101166	-0.300656	1.168169	0.076364	-0.228010	1.205350	0.341078	-0.189385	1.248698	0.320773	-0.232285	1.489772	0.044836	-0.276184	1.220782	0.306126	-0.245909	1.230518	0.350593	-0.235252	1.252936	0.338361	-0.257878	1.257042	0.285750	-0.316787	1.312707	0.145000	-0.343443	1.315535	0.090817	-0.326634	1.374445	0.073539	-0.291085	1.377823	0.120661	0.051434	1.459385	0.071300	0.008622	1.407224	0.122921	0.011692	1.455997	0.092099	0.065329	1.410719	0.091991	-0.001612	1.471652	0.034185	0.034242	1.268520	0.082800	-0.200981	1.456500	0.042572	0.002261	1.428506	0.113418
4630	46.300000	-0.063089	1.559426	-0.057506	-0.086489	1.320375	-0.134563	-0.350279	1.195331	0.097066	-0.295179	1.164148	0.070788	-0.222119	1.196201	0.336260	-0.184658	1.241061	0.317089	-0.232963	1.488446	0.045349	-0.270771	1.211443	0.301774	-0.240627	1.220700	0.346550	-0.230482	1.243741	0.334842	-0.253269	1.248532	0.282277	-0.313045	1.306483	0.143449	-0.340590	1.310142	0.089752	-0.325102	1.369792	0.073801	-0.289066	1.372601	0.120640	0.050984	1.458964	0.071273	0.008391	1.406824	0.123054	0.011235	1.455700	0.092385	0.065071	1.410617	0.092088	-0.002225	1.471346	0.034432	0.034562	1.268297	0.082697	-0.201387	1.455112	0.043315	0.001968	1.428110	0.113622
4631	46.310000	-0.064156	1.559021	-0.057044	-0.086646	1.319989	-0.134431	-0.345159	1.190013	0.093108	-0.289821	1.160530	0.065405	-0.216173	1.187777	0.331443	-0.179858	1.234015	0.313373	-0.233616	1.487181	0.045896	-0.265253	1.202719	0.297536	-0.235301	1.211583	0.342362	-0.225869	1.235170	0.331325	-0.248568	1.240626	0.278859	-0.309397	1.300713	0.141913	-0.337707	1.305092	0.088615	-0.323529	1.365395	0.073821	-0.286961	1.367833	0.120347	0.050409	1.458857	0.071587	0.008201	1.406315	0.123207	0.010742	1.455308	0.092652	0.064820	1.410506	0.092199	-0.002821	1.471059	0.034695	0.034867	1.268094	0.082615	-0.201831	1.453805	0.043962	0.001646	1.427700	0.113828
4632	46.320000	-0.065194	1.558648	-0.056569	-0.086821	1.319642	-0.134281	-0.340100	1.185077	0.089307	-0.284587	1.157284	0.060240	-0.210222	1.180091	0.326666	-0.175026	1.227578	0.309650	-0.234247	1.485982	0.046461	-0.259540	1.194673	0.293202	-0.229741	1.203052	0.338240	-0.220796	1.227133	0.327836	-0.243861	1.233352	0.275491	-0.305843	1.295385	0.139934	-0.334796	1.300382	0.087396	-0.321988	1.361228	0.073836	-0.284948	1.363298	0.119936	0.049871	1.458828	0.071841	0.007795	1.406062	0.123504	0.010260	1.454970	0.092906	0.064524	1.410412	0.092322	-0.003402	1.470797	0.034969	0.035150	1.267913	0.082547	-0.202327	1.452577	0.044517	0.001237	1.427299	0.114047
4633	46.330000	-0.066207	1.558303	-0.056089	-0.087016	1.319327	-0.134114	-0.335127	1.180499	0.085682	-0.279495	1.154378	0.055321	-0.204319	1.173139	0.321969	-0.170201	1.221744	0.305943	-0.234860	1.484848	0.047037	-0.254163	1.187277	0.289006	-0.224361	1.195571	0.334303	-0.216313	1.220041	0.324546	-0.239282	1.226718	0.272059	-0.302325	1.290422	0.138447	-0.331957	1.295935	0.086097	-0.320430	1.357271	0.073654	-0.282729	1.359352	0.118922	0.049657	1.458342	0.072034	0.007547	1.405703	0.123749	0.009835	1.454756	0.093204	0.064228	1.410335	0.092471	-0.003974	1.470559	0.035252	0.035407	1.267757	0.082497	-0.202884	1.451422	0.044978	0.000911	1.426753	0.114280
4634	46.340000	-0.067182	1.558003	-0.055606	-0.087212	1.319066	-0.133957	-0.330245	1.176261	0.082239	-0.274542	1.151786	0.050662	-0.198505	1.166910	0.317392	-0.165425	1.216520	0.302295	-0.235456	1.483788	0.047596	-0.248828	1.180929	0.285249	-0.218967	1.188523	0.330214	-0.211676	1.213682	0.321256	-0.234651	1.220571	0.268595	-0.298987	1.285794	0.136452	-0.329254	1.291781	0.084828	-0.318927	1.353530	0.073429	-0.280870	1.355423	0.118334	0.049099	1.458221	0.072273	0.007379	1.405477	0.123688	0.009387	1.454497	0.093462	0.063868	1.410271	0.092619	-0.004532	1.470352	0.035539	0.035634	1.267625	0.082446	-0.203509	1.450346	0.045371	0.000520	1.426341	0.114402
4635	46.350000	-0.068127	1.557736	-0.055134	-0.087414	1.318843	-0.133804	-0.325484	1.172346	0.078999	-0.269754	1.149483	0.046282	-0.192828	1.161373	0.312974	-0.160732	1.211873	0.298729	-0.236040	1.482796	0.048132	-0.243582	1.174921	0.281189	-0.213684	1.182219	0.326221	-0.206967	1.207833	0.317735	-0.230276	1.215294	0.265487	-0.295731	1.281506	0.134982	-0.326584	1.287791	0.083571	-0.317518	1.349935	0.073165	-0.279030	1.351747	0.117716	0.048705	1.458062	0.072455	0.006999	1.405031	0.123911	0.008963	1.454360	0.093733	0.063498	1.410254	0.092795	-0.005083	1.470172	0.035823	0.035827	1.267518	0.082401	-0.204201	1.449340	0.045702	0.000130	1.426096	0.114632
4636	46.360000	-0.069034	1.557508	-0.054679	-0.087611	1.318666	-0.133673	-0.320862	1.168743	0.075968	-0.265141	1.147450	0.042193	-0.187325	1.156492	0.308752	-0.156158	1.207780	0.295285	-0.236612	1.481875	0.048625	-0.237916	1.169621	0.276768	-0.208631	1.176716	0.322448	-0.202432	1.202518	0.314544	-0.225925	1.210434	0.262203	-0.292552	1.277438	0.133330	-0.324018	1.284003	0.082292	-0.316157	1.346468	0.072887	-0.277376	1.348236	0.117179	0.047934	1.457754	0.072260	0.006694	1.404842	0.124184	0.008335	1.454161	0.093976	0.063189	1.410261	0.092900	-0.005627	1.470020	0.036099	0.035983	1.267435	0.082352	-0.204958	1.448407	0.045996	-0.000197	1.425956	0.114874
4637	46.370000	-0.069899	1.557319	-0.054249	-0.087798	1.318534	-0.133573	-0.316399	1.165444	0.073157	-0.260721	1.145671	0.038402	-0.182031	1.152220	0.304760	-0.151734	1.204205	0.291998	-0.237173	1.481024	0.049061	-0.233445	1.164884	0.273515	-0.203770	1.171840	0.318695	-0.197916	1.197866	0.311345	-0.221825	1.206273	0.259145	-0.289494	1.273655	0.131922	-0.321472	1.280450	0.081226	-0.314879	1.343140	0.072675	-0.275681	1.344998	0.116600	0.049637	1.460512	0.075411	0.006406	1.404663	0.124250	0.007818	1.454015	0.094187	0.062777	1.410448	0.093082	-0.006161	1.469896	0.036360	0.036102	1.267374	0.082295	-0.205771	1.447549	0.046278	-0.000448	1.425768	0.114729
4638	46.380000	-0.070730	1.557155	-0.053856	-0.087979	1.318429	-0.133497	-0.312129	1.162444	0.070581	-0.256524	1.144130	0.034921	-0.176978	1.148499	0.301023	-0.147482	1.201093	0.288893	-0.237728	1.480235	0.049437	-0.228116	1.160882	0.269364	-0.199146	1.167648	0.315248	-0.193803	1.193988	0.308352	-0.217794	1.202647	0.256117	-0.286436	1.270186	0.130652	-0.319071	1.277150	0.080285	-0.313648	1.340046	0.072593	-0.273966	1.341947	0.116121	0.049478	1.460852	0.075950	0.006140	1.404524	0.124369	0.007449	1.453916	0.094382	0.062515	1.410503	0.093197	-0.006691	1.469794	0.036600	0.036182	1.267332	0.082235	-0.206627	1.446762	0.046563	-0.000794	1.425575	0.114875
4639	46.390000	-0.071513	1.557026	-0.053501	-0.088143	1.318363	-0.133464	-0.308064	1.159739	0.068240	-0.252557	1.142817	0.031748	-0.172184	1.145276	0.297569	-0.143430	1.198407	0.286009	-0.238269	1.479514	0.049739	-0.223669	1.157384	0.266148	-0.194618	1.164056	0.312043	-0.189420	1.190325	0.305155	-0.213694	1.199304	0.253135	-0.283513	1.267084	0.129141	-0.316831	1.274179	0.079483	-0.312507	1.337291	0.072624	-0.272460	1.339265	0.115752	0.048375	1.460357	0.075448	0.005875	1.404402	0.124491	0.007068	1.453833	0.094562	0.062240	1.410568	0.093293	-0.007209	1.469714	0.036814	0.036225	1.267306	0.082158	-0.207509	1.446055	0.046885	-0.001130	1.425419	0.115038
4640	46.400000	-0.072258	1.556913	-0.053195	-0.088300	1.318312	-0.133460	-0.304238	1.157326	0.066148	-0.248855	1.141719	0.028889	-0.167671	1.142487	0.294410	-0.139591	1.196085	0.283360	-0.238801	1.478849	0.049974	-0.219314	1.154290	0.263034	-0.190409	1.160916	0.309094	-0.184772	1.186799	0.301564	-0.210086	1.196602	0.250640	-0.280694	1.264322	0.128073	-0.314713	1.271513	0.078868	-0.311476	1.334786	0.072786	-0.270933	1.336859	0.115500	0.045017	1.457912	0.072483	0.005603	1.404275	0.124586	0.006611	1.453731	0.094783	0.061945	1.410599	0.093358	-0.007719	1.469648	0.036997	0.036234	1.267293	0.082075	-0.208396	1.445426	0.047252	-0.001461	1.425279	0.115184
